<svg id="my-svg" width="100%" xmlns="http://www.w3.org/2000/svg" xmlns:xlink="http://www.w3.org/1999/xlink" style="max-width: 2281.5px; background-color: transparent;" viewBox="-50 -10 2281.5 2101" role="graphics-document document" aria-roledescription="sequence"><g><rect x="1974" y="2015" fill="#eaeaea" stroke="#666" width="150" height="65" name="AU" rx="3" ry="3" class="actor actor-bottom"/><text x="2049" y="2047.5" dominant-baseline="central" alignment-baseline="central" class="actor actor-box" style="text-anchor: middle; font-size: 16px; font-weight: 400;"><tspan x="2049" dy="0">Audit Log</tspan></text></g><g><rect x="1744" y="2015" fill="#eaeaea" stroke="#666" width="150" height="65" name="SP" rx="3" ry="3" class="actor actor-bottom"/><text x="1819" y="2047.5" dominant-baseline="central" alignment-baseline="central" class="actor actor-box" style="text-anchor: middle; font-size: 16px; font-weight: 400;"><tspan x="1819" dy="0">Shopify</tspan></text></g><g><rect x="1387" y="2015" fill="#eaeaea" stroke="#666" width="150" height="65" name="SA" rx="3" ry="3" class="actor actor-bottom"/><text x="1462" y="2047.5" dominant-baseline="central" alignment-baseline="central" class="actor actor-box" style="text-anchor: middle; font-size: 16px; font-weight: 400;"><tspan x="1462" dy="0">Shopify Adapter</tspan></text></g><g/><g><rect x="916" y="2015" fill="#eaeaea" stroke="#666" width="150" height="65" name="AQ" rx="3" ry="3" class="actor actor-bottom"/><text x="991" y="2047.5" dominant-baseline="central" alignment-baseline="central" class="actor actor-box" style="text-anchor: middle; font-size: 16px; font-weight: 400;"><tspan x="991" dy="0">Approval Queue</tspan></text></g><g><rect x="623" y="2015" fill="#eaeaea" stroke="#666" width="150" height="65" name="PS" rx="3" ry="3" class="actor actor-bottom"/><text x="698" y="2047.5" dominant-baseline="central" alignment-baseline="central" class="actor actor-box" style="text-anchor: middle; font-size: 16px; font-weight: 400;"><tspan x="698" dy="0">Product Service</tspan></text></g><g><rect x="404" y="2015" fill="#eaeaea" stroke="#666" width="150" height="65" name="VP" rx="3" ry="3" class="actor actor-bottom"/><text x="479" y="2047.5" dominant-baseline="central" alignment-baseline="central" class="actor actor-box" style="text-anchor: middle; font-size: 16px; font-weight: 400;"><tspan x="479" dy="0">Vendor Portal</tspan></text></g><g/><g><line id="actor7" x1="2049" y1="65" x2="2049" y2="2015" class="actor-line 200" stroke-width="0.5px" stroke="#999" name="AU"/><g id="root-7"><rect x="1974" y="0" fill="#eaeaea" stroke="#666" width="150" height="65" name="AU" rx="3" ry="3" class="actor actor-top"/><text x="2049" y="32.5" dominant-baseline="central" alignment-baseline="central" class="actor actor-box" style="text-anchor: middle; font-size: 16px; font-weight: 400;"><tspan x="2049" dy="0">Audit Log</tspan></text></g></g><g><line id="actor6" x1="1819" y1="65" x2="1819" y2="2015" class="actor-line 200" stroke-width="0.5px" stroke="#999" name="SP"/><g id="root-6"><rect x="1744" y="0" fill="#eaeaea" stroke="#666" width="150" height="65" name="SP" rx="3" ry="3" class="actor actor-top"/><text x="1819" y="32.5" dominant-baseline="central" alignment-baseline="central" class="actor actor-box" style="text-anchor: middle; font-size: 16px; font-weight: 400;"><tspan x="1819" dy="0">Shopify</tspan></text></g></g><g><line id="actor5" x1="1462" y1="65" x2="1462" y2="2015" class="actor-line 200" stroke-width="0.5px" stroke="#999" name="SA"/><g id="root-5"><rect x="1387" y="0" fill="#eaeaea" stroke="#666" width="150" height="65" name="SA" rx="3" ry="3" class="actor actor-top"/><text x="1462" y="32.5" dominant-baseline="central" alignment-baseline="central" class="actor actor-box" style="text-anchor: middle; font-size: 16px; font-weight: 400;"><tspan x="1462" dy="0">Shopify Adapter</tspan></text></g></g><g><line id="actor4" x1="1262" y1="80" x2="1262" y2="2015" class="actor-line 200" stroke-width="0.5px" stroke="#999" name="QC"/></g><g><line id="actor3" x1="991" y1="65" x2="991" y2="2015" class="actor-line 200" stroke-width="0.5px" stroke="#999" name="AQ"/><g id="root-3"><rect x="916" y="0" fill="#eaeaea" stroke="#666" width="150" height="65" name="AQ" rx="3" ry="3" class="actor actor-top"/><text x="991" y="32.5" dominant-baseline="central" alignment-baseline="central" class="actor actor-box" style="text-anchor: middle; font-size: 16px; font-weight: 400;"><tspan x="991" dy="0">Approval Queue</tspan></text></g></g><g><line id="actor2" x1="698" y1="65" x2="698" y2="2015" class="actor-line 200" stroke-width="0.5px" stroke="#999" name="PS"/><g id="root-2"><rect x="623" y="0" fill="#eaeaea" stroke="#666" width="150" height="65" name="PS" rx="3" ry="3" class="actor actor-top"/><text x="698" y="32.5" dominant-baseline="central" alignment-baseline="central" class="actor actor-box" style="text-anchor: middle; font-size: 16px; font-weight: 400;"><tspan x="698" dy="0">Product Service</tspan></text></g></g><g><line id="actor1" x1="479" y1="65" x2="479" y2="2015" class="actor-line 200" stroke-width="0.5px" stroke="#999" name="VP"/><g id="root-1"><rect x="404" y="0" fill="#eaeaea" stroke="#666" width="150" height="65" name="VP" rx="3" ry="3" class="actor actor-top"/><text x="479" y="32.5" dominant-baseline="central" alignment-baseline="central" class="actor actor-box" style="text-anchor: middle; font-size: 16px; font-weight: 400;"><tspan x="479" dy="0">Vendor Portal</tspan></text></g></g><g><line id="actor0" x1="75" y1="80" x2="75" y2="2015" class="actor-line 200" stroke-width="0.5px" stroke="#999" name="VD"/></g><style>#my-svg{font-size:13px;fill:#1e293b;}@keyframes edge-animation-frame{from{stroke-dashoffset:0;}}@keyframes dash{to{stroke-dashoffset:0;}}#my-svg .edge-animation-slow{stroke-dasharray:9,5!important;stroke-dashoffset:900;animation:dash 50s linear infinite;stroke-linecap:round;}#my-svg .edge-animation-fast{stroke-dasharray:9,5!important;stroke-dashoffset:900;animation:dash 20s linear infinite;stroke-linecap:round;}#my-svg .error-icon{fill:hsl(45.8823529412, 100%, 100%);}#my-svg .error-text{fill:#000000;stroke:#000000;}#my-svg .edge-thickness-normal{stroke-width:1px;}#my-svg .edge-thickness-thick{stroke-width:3.5px;}#my-svg .edge-pattern-solid{stroke-dasharray:0;}#my-svg .edge-thickness-invisible{stroke-width:0;fill:none;}#my-svg .edge-pattern-dashed{stroke-dasharray:3;}#my-svg .edge-pattern-dotted{stroke-dasharray:2;}#my-svg .marker{fill:#64748b;stroke:#64748b;}#my-svg .marker.cross{stroke:#64748b;}#my-svg svg{font-size:13px;}#my-svg p{margin:0;}#my-svg .actor{stroke:#6366f1;fill:#eef2ff;}#my-svg text.actor&gt;tspan{fill:#1e293b;stroke:none;}#my-svg .actor-line{stroke:#6366f1;}#my-svg .innerArc{stroke-width:1.5;stroke-dasharray:none;}#my-svg .messageLine0{stroke-width:1.5;stroke-dasharray:none;stroke:#1e293b;}#my-svg .messageLine1{stroke-width:1.5;stroke-dasharray:2,2;stroke:#1e293b;}#my-svg #arrowhead path{fill:#1e293b;stroke:#1e293b;}#my-svg .sequenceNumber{fill:#9b8b74;}#my-svg #sequencenumber{fill:#1e293b;}#my-svg #crosshead path{fill:#1e293b;stroke:#1e293b;}#my-svg .messageText{fill:#1e293b;stroke:none;}#my-svg .labelBox{stroke:#6366f1;fill:#eef2ff;}#my-svg .labelText,#my-svg .labelText&gt;tspan{fill:#1e293b;stroke:none;}#my-svg .loopText,#my-svg .loopText&gt;tspan{fill:#1e293b;stroke:none;}#my-svg .loopLine{stroke-width:2px;stroke-dasharray:2,2;stroke:#6366f1;fill:#6366f1;}#my-svg .note{stroke:hsl(52.6829268293, 60%, 73.9215686275%);fill:#fff5ad;}#my-svg .noteText,#my-svg .noteText&gt;tspan{fill:#333;stroke:none;}#my-svg .activation0{fill:hsl(105.8823529412, 100%, 96.6666666667%);stroke:hsl(105.8823529412, 100%, 86.6666666667%);}#my-svg .activation1{fill:hsl(105.8823529412, 100%, 96.6666666667%);stroke:hsl(105.8823529412, 100%, 86.6666666667%);}#my-svg .activation2{fill:hsl(105.8823529412, 100%, 96.6666666667%);stroke:hsl(105.8823529412, 100%, 86.6666666667%);}#my-svg .actorPopupMenu{position:absolute;}#my-svg .actorPopupMenuPanel{position:absolute;fill:#eef2ff;box-shadow:0px 8px 16px 0px rgba(0,0,0,0.2);filter:drop-shadow(3px 5px 2px rgb(0 0 0 / 0.4));}#my-svg .actor-man line{stroke:#6366f1;fill:#eef2ff;}#my-svg .actor-man circle,#my-svg line{stroke:#6366f1;fill:#eef2ff;stroke-width:2px;}#my-svg :root{--mermaid-font-family:"trebuchet ms",verdana,arial,sans-serif;}</style><g/><defs><symbol id="computer" width="24" height="24"><path transform="scale(.5)" d="M2 2v13h20v-13h-20zm18 11h-16v-9h16v9zm-10.228 6l.466-1h3.524l.467 1h-4.457zm14.228 3h-24l2-6h2.104l-1.33 4h18.45l-1.297-4h2.073l2 6zm-5-10h-14v-7h14v7z"/></symbol></defs><defs><symbol id="database" fill-rule="evenodd" clip-rule="evenodd"><path transform="scale(.5)" d="M12.258.001l.256.004.255.005.253.008.251.01.249.012.247.015.246.016.242.019.241.02.239.023.236.024.233.027.231.028.229.031.225.032.223.034.22.036.217.038.214.04.211.041.208.043.205.045.201.046.198.048.194.05.191.051.187.053.183.054.18.056.175.057.172.059.168.06.163.061.16.063.155.064.15.066.074.033.073.033.071.034.07.034.069.035.068.035.067.035.066.035.064.036.064.036.062.036.06.036.06.037.058.037.058.037.055.038.055.038.053.038.052.038.051.039.05.039.048.039.047.039.045.04.044.04.043.04.041.04.04.041.039.041.037.041.036.041.034.041.033.042.032.042.03.042.029.042.027.042.026.043.024.043.023.043.021.043.02.043.018.044.017.043.015.044.013.044.012.044.011.045.009.044.007.045.006.045.004.045.002.045.001.045v17l-.001.045-.002.045-.004.045-.006.045-.007.045-.009.044-.011.045-.012.044-.013.044-.015.044-.017.043-.018.044-.02.043-.021.043-.023.043-.024.043-.026.043-.027.042-.029.042-.03.042-.032.042-.033.042-.034.041-.036.041-.037.041-.039.041-.04.041-.041.04-.043.04-.044.04-.045.04-.047.039-.048.039-.05.039-.051.039-.052.038-.053.038-.055.038-.055.038-.058.037-.058.037-.06.037-.06.036-.062.036-.064.036-.064.036-.066.035-.067.035-.068.035-.069.035-.07.034-.071.034-.073.033-.074.033-.15.066-.155.064-.16.063-.163.061-.168.06-.172.059-.175.057-.18.056-.183.054-.187.053-.191.051-.194.05-.198.048-.201.046-.205.045-.208.043-.211.041-.214.04-.217.038-.22.036-.223.034-.225.032-.229.031-.231.028-.233.027-.236.024-.239.023-.241.02-.242.019-.246.016-.247.015-.249.012-.251.01-.253.008-.255.005-.256.004-.258.001-.258-.001-.256-.004-.255-.005-.253-.008-.251-.01-.249-.012-.247-.015-.245-.016-.243-.019-.241-.02-.238-.023-.236-.024-.234-.027-.231-.028-.228-.031-.226-.032-.223-.034-.22-.036-.217-.038-.214-.04-.211-.041-.208-.043-.204-.045-.201-.046-.198-.048-.195-.05-.19-.051-.187-.053-.184-.054-.179-.056-.176-.057-.172-.059-.167-.06-.164-.061-.159-.063-.155-.064-.151-.066-.074-.033-.072-.033-.072-.034-.07-.034-.069-.035-.068-.035-.067-.035-.066-.035-.064-.036-.063-.036-.062-.036-.061-.036-.06-.037-.058-.037-.057-.037-.056-.038-.055-.038-.053-.038-.052-.038-.051-.039-.049-.039-.049-.039-.046-.039-.046-.04-.044-.04-.043-.04-.041-.04-.04-.041-.039-.041-.037-.041-.036-.041-.034-.041-.033-.042-.032-.042-.03-.042-.029-.042-.027-.042-.026-.043-.024-.043-.023-.043-.021-.043-.02-.043-.018-.044-.017-.043-.015-.044-.013-.044-.012-.044-.011-.045-.009-.044-.007-.045-.006-.045-.004-.045-.002-.045-.001-.045v-17l.001-.045.002-.045.004-.045.006-.045.007-.045.009-.044.011-.045.012-.044.013-.044.015-.044.017-.043.018-.044.02-.043.021-.043.023-.043.024-.043.026-.043.027-.042.029-.042.03-.042.032-.042.033-.042.034-.041.036-.041.037-.041.039-.041.04-.041.041-.04.043-.04.044-.04.046-.04.046-.039.049-.039.049-.039.051-.039.052-.038.053-.038.055-.038.056-.038.057-.037.058-.037.06-.037.061-.036.062-.036.063-.036.064-.036.066-.035.067-.035.068-.035.069-.035.07-.034.072-.034.072-.033.074-.033.151-.066.155-.064.159-.063.164-.061.167-.06.172-.059.176-.057.179-.056.184-.054.187-.053.19-.051.195-.05.198-.048.201-.046.204-.045.208-.043.211-.041.214-.04.217-.038.22-.036.223-.034.226-.032.228-.031.231-.028.234-.027.236-.024.238-.023.241-.02.243-.019.245-.016.247-.015.249-.012.251-.01.253-.008.255-.005.256-.004.258-.001.258.001zm-9.258 20.499v.01l.001.021.003.021.004.022.005.021.006.022.007.022.009.023.01.022.011.023.012.023.013.023.015.023.016.024.017.023.018.024.019.024.021.024.022.025.023.024.024.025.052.049.056.05.061.051.066.051.07.051.075.051.079.052.084.052.088.052.092.052.097.052.102.051.105.052.11.052.114.051.119.051.123.051.127.05.131.05.135.05.139.048.144.049.147.047.152.047.155.047.16.045.163.045.167.043.171.043.176.041.178.041.183.039.187.039.19.037.194.035.197.035.202.033.204.031.209.03.212.029.216.027.219.025.222.024.226.021.23.02.233.018.236.016.24.015.243.012.246.01.249.008.253.005.256.004.259.001.26-.001.257-.004.254-.005.25-.008.247-.011.244-.012.241-.014.237-.016.233-.018.231-.021.226-.021.224-.024.22-.026.216-.027.212-.028.21-.031.205-.031.202-.034.198-.034.194-.036.191-.037.187-.039.183-.04.179-.04.175-.042.172-.043.168-.044.163-.045.16-.046.155-.046.152-.047.148-.048.143-.049.139-.049.136-.05.131-.05.126-.05.123-.051.118-.052.114-.051.11-.052.106-.052.101-.052.096-.052.092-.052.088-.053.083-.051.079-.052.074-.052.07-.051.065-.051.06-.051.056-.05.051-.05.023-.024.023-.025.021-.024.02-.024.019-.024.018-.024.017-.024.015-.023.014-.024.013-.023.012-.023.01-.023.01-.022.008-.022.006-.022.006-.022.004-.022.004-.021.001-.021.001-.021v-4.127l-.077.055-.08.053-.083.054-.085.053-.087.052-.09.052-.093.051-.095.05-.097.05-.1.049-.102.049-.105.048-.106.047-.109.047-.111.046-.114.045-.115.045-.118.044-.12.043-.122.042-.124.042-.126.041-.128.04-.13.04-.132.038-.134.038-.135.037-.138.037-.139.035-.142.035-.143.034-.144.033-.147.032-.148.031-.15.03-.151.03-.153.029-.154.027-.156.027-.158.026-.159.025-.161.024-.162.023-.163.022-.165.021-.166.02-.167.019-.169.018-.169.017-.171.016-.173.015-.173.014-.175.013-.175.012-.177.011-.178.01-.179.008-.179.008-.181.006-.182.005-.182.004-.184.003-.184.002h-.37l-.184-.002-.184-.003-.182-.004-.182-.005-.181-.006-.179-.008-.179-.008-.178-.01-.176-.011-.176-.012-.175-.013-.173-.014-.172-.015-.171-.016-.17-.017-.169-.018-.167-.019-.166-.02-.165-.021-.163-.022-.162-.023-.161-.024-.159-.025-.157-.026-.156-.027-.155-.027-.153-.029-.151-.03-.15-.03-.148-.031-.146-.032-.145-.033-.143-.034-.141-.035-.14-.035-.137-.037-.136-.037-.134-.038-.132-.038-.13-.04-.128-.04-.126-.041-.124-.042-.122-.042-.12-.044-.117-.043-.116-.045-.113-.045-.112-.046-.109-.047-.106-.047-.105-.048-.102-.049-.1-.049-.097-.05-.095-.05-.093-.052-.09-.051-.087-.052-.085-.053-.083-.054-.08-.054-.077-.054v4.127zm0-5.654v.011l.001.021.003.021.004.021.005.022.006.022.007.022.009.022.01.022.011.023.012.023.013.023.015.024.016.023.017.024.018.024.019.024.021.024.022.024.023.025.024.024.052.05.056.05.061.05.066.051.07.051.075.052.079.051.084.052.088.052.092.052.097.052.102.052.105.052.11.051.114.051.119.052.123.05.127.051.131.05.135.049.139.049.144.048.147.048.152.047.155.046.16.045.163.045.167.044.171.042.176.042.178.04.183.04.187.038.19.037.194.036.197.034.202.033.204.032.209.03.212.028.216.027.219.025.222.024.226.022.23.02.233.018.236.016.24.014.243.012.246.01.249.008.253.006.256.003.259.001.26-.001.257-.003.254-.006.25-.008.247-.01.244-.012.241-.015.237-.016.233-.018.231-.02.226-.022.224-.024.22-.025.216-.027.212-.029.21-.03.205-.032.202-.033.198-.035.194-.036.191-.037.187-.039.183-.039.179-.041.175-.042.172-.043.168-.044.163-.045.16-.045.155-.047.152-.047.148-.048.143-.048.139-.05.136-.049.131-.05.126-.051.123-.051.118-.051.114-.052.11-.052.106-.052.101-.052.096-.052.092-.052.088-.052.083-.052.079-.052.074-.051.07-.052.065-.051.06-.05.056-.051.051-.049.023-.025.023-.024.021-.025.02-.024.019-.024.018-.024.017-.024.015-.023.014-.023.013-.024.012-.022.01-.023.01-.023.008-.022.006-.022.006-.022.004-.021.004-.022.001-.021.001-.021v-4.139l-.077.054-.08.054-.083.054-.085.052-.087.053-.09.051-.093.051-.095.051-.097.05-.1.049-.102.049-.105.048-.106.047-.109.047-.111.046-.114.045-.115.044-.118.044-.12.044-.122.042-.124.042-.126.041-.128.04-.13.039-.132.039-.134.038-.135.037-.138.036-.139.036-.142.035-.143.033-.144.033-.147.033-.148.031-.15.03-.151.03-.153.028-.154.028-.156.027-.158.026-.159.025-.161.024-.162.023-.163.022-.165.021-.166.02-.167.019-.169.018-.169.017-.171.016-.173.015-.173.014-.175.013-.175.012-.177.011-.178.009-.179.009-.179.007-.181.007-.182.005-.182.004-.184.003-.184.002h-.37l-.184-.002-.184-.003-.182-.004-.182-.005-.181-.007-.179-.007-.179-.009-.178-.009-.176-.011-.176-.012-.175-.013-.173-.014-.172-.015-.171-.016-.17-.017-.169-.018-.167-.019-.166-.02-.165-.021-.163-.022-.162-.023-.161-.024-.159-.025-.157-.026-.156-.027-.155-.028-.153-.028-.151-.03-.15-.03-.148-.031-.146-.033-.145-.033-.143-.033-.141-.035-.14-.036-.137-.036-.136-.037-.134-.038-.132-.039-.13-.039-.128-.04-.126-.041-.124-.042-.122-.043-.12-.043-.117-.044-.116-.044-.113-.046-.112-.046-.109-.046-.106-.047-.105-.048-.102-.049-.1-.049-.097-.05-.095-.051-.093-.051-.09-.051-.087-.053-.085-.052-.083-.054-.08-.054-.077-.054v4.139zm0-5.666v.011l.001.02.003.022.004.021.005.022.006.021.007.022.009.023.01.022.011.023.012.023.013.023.015.023.016.024.017.024.018.023.019.024.021.025.022.024.023.024.024.025.052.05.056.05.061.05.066.051.07.051.075.052.079.051.084.052.088.052.092.052.097.052.102.052.105.051.11.052.114.051.119.051.123.051.127.05.131.05.135.05.139.049.144.048.147.048.152.047.155.046.16.045.163.045.167.043.171.043.176.042.178.04.183.04.187.038.19.037.194.036.197.034.202.033.204.032.209.03.212.028.216.027.219.025.222.024.226.021.23.02.233.018.236.017.24.014.243.012.246.01.249.008.253.006.256.003.259.001.26-.001.257-.003.254-.006.25-.008.247-.01.244-.013.241-.014.237-.016.233-.018.231-.02.226-.022.224-.024.22-.025.216-.027.212-.029.21-.03.205-.032.202-.033.198-.035.194-.036.191-.037.187-.039.183-.039.179-.041.175-.042.172-.043.168-.044.163-.045.16-.045.155-.047.152-.047.148-.048.143-.049.139-.049.136-.049.131-.051.126-.05.123-.051.118-.052.114-.051.11-.052.106-.052.101-.052.096-.052.092-.052.088-.052.083-.052.079-.052.074-.052.07-.051.065-.051.06-.051.056-.05.051-.049.023-.025.023-.025.021-.024.02-.024.019-.024.018-.024.017-.024.015-.023.014-.024.013-.023.012-.023.01-.022.01-.023.008-.022.006-.022.006-.022.004-.022.004-.021.001-.021.001-.021v-4.153l-.077.054-.08.054-.083.053-.085.053-.087.053-.09.051-.093.051-.095.051-.097.05-.1.049-.102.048-.105.048-.106.048-.109.046-.111.046-.114.046-.115.044-.118.044-.12.043-.122.043-.124.042-.126.041-.128.04-.13.039-.132.039-.134.038-.135.037-.138.036-.139.036-.142.034-.143.034-.144.033-.147.032-.148.032-.15.03-.151.03-.153.028-.154.028-.156.027-.158.026-.159.024-.161.024-.162.023-.163.023-.165.021-.166.02-.167.019-.169.018-.169.017-.171.016-.173.015-.173.014-.175.013-.175.012-.177.01-.178.01-.179.009-.179.007-.181.006-.182.006-.182.004-.184.003-.184.001-.185.001-.185-.001-.184-.001-.184-.003-.182-.004-.182-.006-.181-.006-.179-.007-.179-.009-.178-.01-.176-.01-.176-.012-.175-.013-.173-.014-.172-.015-.171-.016-.17-.017-.169-.018-.167-.019-.166-.02-.165-.021-.163-.023-.162-.023-.161-.024-.159-.024-.157-.026-.156-.027-.155-.028-.153-.028-.151-.03-.15-.03-.148-.032-.146-.032-.145-.033-.143-.034-.141-.034-.14-.036-.137-.036-.136-.037-.134-.038-.132-.039-.13-.039-.128-.041-.126-.041-.124-.041-.122-.043-.12-.043-.117-.044-.116-.044-.113-.046-.112-.046-.109-.046-.106-.048-.105-.048-.102-.048-.1-.05-.097-.049-.095-.051-.093-.051-.09-.052-.087-.052-.085-.053-.083-.053-.08-.054-.077-.054v4.153zm8.74-8.179l-.257.004-.254.005-.25.008-.247.011-.244.012-.241.014-.237.016-.233.018-.231.021-.226.022-.224.023-.22.026-.216.027-.212.028-.21.031-.205.032-.202.033-.198.034-.194.036-.191.038-.187.038-.183.04-.179.041-.175.042-.172.043-.168.043-.163.045-.16.046-.155.046-.152.048-.148.048-.143.048-.139.049-.136.05-.131.05-.126.051-.123.051-.118.051-.114.052-.11.052-.106.052-.101.052-.096.052-.092.052-.088.052-.083.052-.079.052-.074.051-.07.052-.065.051-.06.05-.056.05-.051.05-.023.025-.023.024-.021.024-.02.025-.019.024-.018.024-.017.023-.015.024-.014.023-.013.023-.012.023-.01.023-.01.022-.008.022-.006.023-.006.021-.004.022-.004.021-.001.021-.001.021.001.021.001.021.004.021.004.022.006.021.006.023.008.022.01.022.01.023.012.023.013.023.014.023.015.024.017.023.018.024.019.024.02.025.021.024.023.024.023.025.051.05.056.05.06.05.065.051.07.052.074.051.079.052.083.052.088.052.092.052.096.052.101.052.106.052.11.052.114.052.118.051.123.051.126.051.131.05.136.05.139.049.143.048.148.048.152.048.155.046.16.046.163.045.168.043.172.043.175.042.179.041.183.04.187.038.191.038.194.036.198.034.202.033.205.032.21.031.212.028.216.027.22.026.224.023.226.022.231.021.233.018.237.016.241.014.244.012.247.011.25.008.254.005.257.004.26.001.26-.001.257-.004.254-.005.25-.008.247-.011.244-.012.241-.014.237-.016.233-.018.231-.021.226-.022.224-.023.22-.026.216-.027.212-.028.21-.031.205-.032.202-.033.198-.034.194-.036.191-.038.187-.038.183-.04.179-.041.175-.042.172-.043.168-.043.163-.045.16-.046.155-.046.152-.048.148-.048.143-.048.139-.049.136-.05.131-.05.126-.051.123-.051.118-.051.114-.052.11-.052.106-.052.101-.052.096-.052.092-.052.088-.052.083-.052.079-.052.074-.051.07-.052.065-.051.06-.05.056-.05.051-.05.023-.025.023-.024.021-.024.02-.025.019-.024.018-.024.017-.023.015-.024.014-.023.013-.023.012-.023.01-.023.01-.022.008-.022.006-.023.006-.021.004-.022.004-.021.001-.021.001-.021-.001-.021-.001-.021-.004-.021-.004-.022-.006-.021-.006-.023-.008-.022-.01-.022-.01-.023-.012-.023-.013-.023-.014-.023-.015-.024-.017-.023-.018-.024-.019-.024-.02-.025-.021-.024-.023-.024-.023-.025-.051-.05-.056-.05-.06-.05-.065-.051-.07-.052-.074-.051-.079-.052-.083-.052-.088-.052-.092-.052-.096-.052-.101-.052-.106-.052-.11-.052-.114-.052-.118-.051-.123-.051-.126-.051-.131-.05-.136-.05-.139-.049-.143-.048-.148-.048-.152-.048-.155-.046-.16-.046-.163-.045-.168-.043-.172-.043-.175-.042-.179-.041-.183-.04-.187-.038-.191-.038-.194-.036-.198-.034-.202-.033-.205-.032-.21-.031-.212-.028-.216-.027-.22-.026-.224-.023-.226-.022-.231-.021-.233-.018-.237-.016-.241-.014-.244-.012-.247-.011-.25-.008-.254-.005-.257-.004-.26-.001-.26.001z"/></symbol></defs><defs><symbol id="clock" width="24" height="24"><path transform="scale(.5)" d="M12 2c5.514 0 10 4.486 10 10s-4.486 10-10 10-10-4.486-10-10 4.486-10 10-10zm0-2c-6.627 0-12 5.373-12 12s5.373 12 12 12 12-5.373 12-12-5.373-12-12-12zm5.848 12.459c.202.038.202.333.001.372-1.907.361-6.045 1.111-6.547 1.111-.719 0-1.301-.582-1.301-1.301 0-.512.77-5.447 1.125-7.445.034-.192.312-.181.343.014l.985 6.238 5.394 1.011z"/></symbol></defs><defs><marker id="arrowhead" refX="7.9" refY="5" markerUnits="userSpaceOnUse" markerWidth="12" markerHeight="12" orient="auto-start-reverse"><path d="M -1 0 L 10 5 L 0 10 z"/></marker></defs><defs><marker id="crosshead" markerWidth="15" markerHeight="8" orient="auto" refX="4" refY="4.5"><path fill="none" stroke="#000000" stroke-width="1pt" d="M 1,2 L 6,7 M 6,2 L 1,7" style="stroke-dasharray: 0, 0;"/></marker></defs><defs><marker id="filled-head" refX="15.5" refY="7" markerWidth="20" markerHeight="28" orient="auto"><path d="M 18,7 L9,13 L14,7 L9,1 Z"/></marker></defs><defs><marker id="sequencenumber" refX="15" refY="15" markerWidth="60" markerHeight="40" orient="auto"><circle cx="15" cy="15" r="6"/></marker></defs><defs><marker id="solidTopArrowHead" refX="7.9" refY="7.25" markerUnits="userSpaceOnUse" markerWidth="12" markerHeight="12" orient="auto-start-reverse"><path d="M 0 0 L 10 8 L 0 8 z"/></marker></defs><defs><marker id="solidBottomArrowHead" refX="7.9" refY="0.75" markerUnits="userSpaceOnUse" markerWidth="12" markerHeight="12" orient="auto-start-reverse"><path d="M 0 0 L 10 0 L 0 8 z"/></marker></defs><defs><marker id="stickTopArrowHead" refX="7.5" refY="7" markerUnits="userSpaceOnUse" markerWidth="12" markerHeight="12" orient="auto-start-reverse"><path d="M 0 0 L 7 7" stroke="black" stroke-width="1.5" fill="none"/></marker></defs><defs><marker id="stickBottomArrowHead" refX="7.5" refY="0" markerUnits="userSpaceOnUse" markerWidth="12" markerHeight="12" orient="auto-start-reverse"><path d="M 0 7 L 7 0" stroke="black" stroke-width="1.5" fill="none"/></marker></defs><g><rect x="50" y="75" fill="#EDF2AE" stroke="#666" width="2024" height="58" class="note"/><text x="1062" y="80" text-anchor="middle" dominant-baseline="middle" alignment-baseline="middle" class="noteText" dy="1em" style="font-size: 16px; font-weight: 400;"><tspan x="1062">Requirement 8.1 - new products need approval -</tspan></text><text x="1062" y="99" text-anchor="middle" dominant-baseline="middle" alignment-baseline="middle" class="noteText" dy="1em" style="font-size: 16px; font-weight: 400;"><tspan x="1062">stock and price updates go live WITHOUT approval.</tspan></text></g><g><rect x="723" y="350" fill="#EDF2AE" stroke="#666" width="238" height="96" class="note"/><text x="842" y="355" text-anchor="middle" dominant-baseline="middle" alignment-baseline="middle" class="noteText" dy="1em" style="font-size: 16px; font-weight: 400;"><tspan x="842">"Missing size chart" appears 127x</tspan></text><text x="842" y="374" text-anchor="middle" dominant-baseline="middle" alignment-baseline="middle" class="noteText" dy="1em" style="font-size: 16px; font-weight: 400;"><tspan x="842">as a return reason. Making it a</tspan></text><text x="842" y="393" text-anchor="middle" dominant-baseline="middle" alignment-baseline="middle" class="noteText" dy="1em" style="font-size: 16px; font-weight: 400;"><tspan x="842">required field at upload is the</tspan></text><text x="842" y="412" text-anchor="middle" dominant-baseline="middle" alignment-baseline="middle" class="noteText" dy="1em" style="font-size: 16px; font-weight: 400;"><tspan x="842">cheapest possible fix.</tspan></text></g><g><rect x="100" y="1134" fill="#EDF2AE" stroke="#666" width="214" height="77" class="note"/><text x="207" y="1139" text-anchor="middle" dominant-baseline="middle" alignment-baseline="middle" class="noteText" dy="1em" style="font-size: 16px; font-weight: 400;"><tspan x="207">Vendor edits and resubmits.</tspan></text><text x="207" y="1158" text-anchor="middle" dominant-baseline="middle" alignment-baseline="middle" class="noteText" dy="1em" style="font-size: 16px; font-weight: 400;"><tspan x="207">Nothing reaches the storefront</tspan></text><text x="207" y="1177" text-anchor="middle" dominant-baseline="middle" alignment-baseline="middle" class="noteText" dy="1em" style="font-size: 16px; font-weight: 400;"><tspan x="207">without QC. (Req 8.1)</tspan></text></g><g><line x1="64" y1="662" x2="1830" y2="662" class="loopLine"/><line x1="1830" y1="662" x2="1830" y2="1221" class="loopLine"/><line x1="64" y1="1221" x2="1830" y2="1221" class="loopLine"/><line x1="64" y1="662" x2="64" y2="1221" class="loopLine"/><line x1="64" y1="1006" x2="1830" y2="1006" class="loopLine" style="stroke-dasharray: 3, 3;"/><polygon points="64,662 114,662 114,675 105.6,682 64,682" class="labelBox"/><text x="89" y="675" text-anchor="middle" dominant-baseline="middle" alignment-baseline="middle" class="labelText" style="font-size: 16px; font-weight: 400;">alt</text><text x="972" y="680" text-anchor="middle" class="loopText" style="font-size: 16px; font-weight: 400;"><tspan x="972">[approved]</tspan></text><text x="947" y="1024" text-anchor="middle" class="loopText" style="font-size: 16px; font-weight: 400;">[rejected]</text></g><g><rect x="723" y="1496" fill="#EDF2AE" stroke="#666" width="243" height="96" class="note"/><text x="845" y="1501" text-anchor="middle" dominant-baseline="middle" alignment-baseline="middle" class="noteText" dy="1em" style="font-size: 16px; font-weight: 400;"><tspan x="845">No approval gate - explicitly</tspan></text><text x="845" y="1520" text-anchor="middle" dominant-baseline="middle" alignment-baseline="middle" class="noteText" dy="1em" style="font-size: 16px; font-weight: 400;"><tspan x="845">allowed by Req 8.1. Speed matters</tspan></text><text x="845" y="1539" text-anchor="middle" dominant-baseline="middle" alignment-baseline="middle" class="noteText" dy="1em" style="font-size: 16px; font-weight: 400;"><tspan x="845">more than control here. The audit</tspan></text><text x="845" y="1558" text-anchor="middle" dominant-baseline="middle" alignment-baseline="middle" class="noteText" dy="1em" style="font-size: 16px; font-weight: 400;"><tspan x="845">log provides accountability.</tspan></text></g><g><rect x="1016" y="1779" fill="#EDF2AE" stroke="#666" width="221" height="77" class="note"/><text x="1127" y="1784" text-anchor="middle" dominant-baseline="middle" alignment-baseline="middle" class="noteText" dy="1em" style="font-size: 16px; font-weight: 400;"><tspan x="1127">The live product stays live on</tspan></text><text x="1127" y="1803" text-anchor="middle" dominant-baseline="middle" alignment-baseline="middle" class="noteText" dy="1em" style="font-size: 16px; font-weight: 400;"><tspan x="1127">the old content until approved -</tspan></text><text x="1127" y="1822" text-anchor="middle" dominant-baseline="middle" alignment-baseline="middle" class="noteText" dy="1em" style="font-size: 16px; font-weight: 400;"><tspan x="1127">no storefront gap.</tspan></text></g><g><line x1="54" y1="143" x2="2060" y2="143" class="loopLine"/><line x1="2060" y1="143" x2="2060" y2="1866" class="loopLine"/><line x1="54" y1="1866" x2="2060" y2="1866" class="loopLine"/><line x1="54" y1="143" x2="54" y2="1866" class="loopLine"/><line x1="54" y1="1236" x2="2060" y2="1236" class="loopLine" style="stroke-dasharray: 3, 3;"/><line x1="54" y1="1607" x2="2060" y2="1607" class="loopLine" style="stroke-dasharray: 3, 3;"/><polygon points="54,143 104,143 104,156 95.6,163 54,163" class="labelBox"/><text x="79" y="156" text-anchor="middle" dominant-baseline="middle" alignment-baseline="middle" class="labelText" style="font-size: 16px; font-weight: 400;">alt</text><text x="1082" y="161" text-anchor="middle" class="loopText" style="font-size: 16px; font-weight: 400;"><tspan x="1082">[vendor uploads a NEW product]</tspan></text><text x="1057" y="1254" text-anchor="middle" class="loopText" style="font-size: 16px; font-weight: 400;">[vendor updates STOCK or PRICE]</text><text x="1057" y="1625" text-anchor="middle" class="loopText" style="font-size: 16px; font-weight: 400;">[vendor edits an EXISTING product's content]</text></g><g><rect x="1916.5" y="1937" fill="#EDF2AE" stroke="#666" width="265" height="58" class="note"/><text x="2049" y="1942" text-anchor="middle" dominant-baseline="middle" alignment-baseline="middle" class="noteText" dy="1em" style="font-size: 16px; font-weight: 400;"><tspan x="2049">Requirement 12.4 - full accountability</tspan></text><text x="2049" y="1961" text-anchor="middle" dominant-baseline="middle" alignment-baseline="middle" class="noteText" dy="1em" style="font-size: 16px; font-weight: 400;"><tspan x="2049">for every vendor-initiated change.</tspan></text></g><g class="actor-man actor-top" name="VD"><line id="actor-man-torso0" x1="75" y1="25" x2="75" y2="45"/><line id="actor-man-arms0" x1="57" y1="33" x2="93" y2="33"/><line x1="57" y1="60" x2="75" y2="45"/><line x1="75" y1="45" x2="91" y2="60"/><circle cx="75" cy="10" r="15" width="150" height="65"/><text x="75" y="67.5" dominant-baseline="central" alignment-baseline="central" class="actor actor-man" style="text-anchor: middle; font-size: 16px; font-weight: 400;"><tspan x="75" dy="0">Vendor</tspan></text></g><g class="actor-man actor-top" name="QC"><line id="actor-man-torso4" x1="1262" y1="25" x2="1262" y2="45"/><line id="actor-man-arms4" x1="1244" y1="33" x2="1280" y2="33"/><line x1="1244" y1="60" x2="1262" y2="45"/><line x1="1262" y1="45" x2="1278" y2="60"/><circle cx="1262" cy="10" r="15" width="150" height="65"/><text x="1262" y="67.5" dominant-baseline="central" alignment-baseline="central" class="actor actor-man" style="text-anchor: middle; font-size: 16px; font-weight: 400;"><tspan x="1262" dy="0">QC / Admin</tspan></text></g><text x="276" y="193" text-anchor="middle" dominant-baseline="middle" alignment-baseline="middle" class="messageText" dy="1em" style="font-size: 16px; font-weight: 400;">upload product (images, description, variants, price)</text><line x1="82" y1="222" x2="475" y2="222" class="messageLine0" stroke-width="2" stroke="none" marker-end="url(#arrowhead)" style="fill: none;"/><line x1="75" y1="222" x2="75" y2="222" stroke-width="0" marker-start="url(#sequencenumber)"/><text x="75" y="226" font-family="sans-serif" font-size="12px" text-anchor="middle" class="sequenceNumber">1</text><text x="587" y="237" text-anchor="middle" dominant-baseline="middle" alignment-baseline="middle" class="messageText" dy="1em" style="font-size: 16px; font-weight: 400;">submit</text><line x1="486" y1="266" x2="694" y2="266" class="messageLine0" stroke-width="2" stroke="none" marker-end="url(#arrowhead)" style="fill: none;"/><line x1="479" y1="266" x2="479" y2="266" stroke-width="0" marker-start="url(#sequencenumber)"/><text x="479" y="270" font-family="sans-serif" font-size="12px" text-anchor="middle" class="sequenceNumber">2</text><text x="699" y="281" text-anchor="middle" dominant-baseline="middle" alignment-baseline="middle" class="messageText" dy="1em" style="font-size: 16px; font-weight: 400;">validate (required fields, image count, size chart)</text><path d="M 699,310 C 759,300 759,340 699,330" class="messageLine0" stroke-width="2" stroke="none" marker-end="url(#arrowhead)" x1="705" style="fill: none;"/><line x1="698" y1="310" x2="698" y2="310" stroke-width="0" marker-start="url(#sequencenumber)"/><text x="698" y="314" font-family="sans-serif" font-size="12px" text-anchor="middle" class="sequenceNumber">3</text><text x="699" y="461" text-anchor="middle" dominant-baseline="middle" alignment-baseline="middle" class="messageText" dy="1em" style="font-size: 16px; font-weight: 400;">status = Pending Approval</text><path d="M 699,490 C 759,480 759,520 699,510" class="messageLine0" stroke-width="2" stroke="none" marker-end="url(#arrowhead)" x1="705" style="fill: none;"/><line x1="698" y1="490" x2="698" y2="490" stroke-width="0" marker-start="url(#sequencenumber)"/><text x="698" y="494" font-family="sans-serif" font-size="12px" text-anchor="middle" class="sequenceNumber">4</text><text x="843" y="535" text-anchor="middle" dominant-baseline="middle" alignment-baseline="middle" class="messageText" dy="1em" style="font-size: 16px; font-weight: 400;">enqueue for QC</text><line x1="705" y1="564" x2="987" y2="564" class="messageLine0" stroke-width="2" stroke="none" marker-end="url(#arrowhead)" style="fill: none;"/><line x1="698" y1="564" x2="698" y2="564" stroke-width="0" marker-start="url(#sequencenumber)"/><text x="698" y="568" font-family="sans-serif" font-size="12px" text-anchor="middle" class="sequenceNumber">5</text><text x="1372" y="579" text-anchor="middle" dominant-baseline="middle" alignment-baseline="middle" class="messageText" dy="1em" style="font-size: 16px; font-weight: 400;">log submission</text><line x1="705" y1="608" x2="2045" y2="608" class="messageLine0" stroke-width="2" stroke="none" marker-end="url(#arrowhead)" style="fill: none;"/><line x1="698" y1="608" x2="698" y2="608" stroke-width="0" marker-start="url(#sequencenumber)"/><text x="698" y="612" font-family="sans-serif" font-size="12px" text-anchor="middle" class="sequenceNumber">6</text><text x="1128" y="623" text-anchor="middle" dominant-baseline="middle" alignment-baseline="middle" class="messageText" dy="1em" style="font-size: 16px; font-weight: 400;">review</text><line x1="1267" y1="652" x2="995" y2="652" class="messageLine0" stroke-width="2" stroke="none" marker-end="url(#arrowhead)" style="fill: none;"/><line x1="1262" y1="652" x2="1262" y2="652" stroke-width="0" marker-start="url(#sequencenumber)"/><text x="1262" y="656" font-family="sans-serif" font-size="12px" text-anchor="middle" class="sequenceNumber">7</text><text x="982" y="712" text-anchor="middle" dominant-baseline="middle" alignment-baseline="middle" class="messageText" dy="1em" style="font-size: 16px; font-weight: 400;">approve</text><line x1="1267" y1="741" x2="702" y2="741" class="messageLine0" stroke-width="2" stroke="none" marker-end="url(#arrowhead)" style="fill: none;"/><line x1="1262" y1="741" x2="1262" y2="741" stroke-width="0" marker-start="url(#sequencenumber)"/><text x="1262" y="745" font-family="sans-serif" font-size="12px" text-anchor="middle" class="sequenceNumber">8</text><text x="1079" y="756" text-anchor="middle" dominant-baseline="middle" alignment-baseline="middle" class="messageText" dy="1em" style="font-size: 16px; font-weight: 400;">publish to Shopify</text><line x1="705" y1="785" x2="1458" y2="785" class="messageLine0" stroke-width="2" stroke="none" marker-end="url(#arrowhead)" style="fill: none;"/><line x1="698" y1="785" x2="698" y2="785" stroke-width="0" marker-start="url(#sequencenumber)"/><text x="698" y="789" font-family="sans-serif" font-size="12px" text-anchor="middle" class="sequenceNumber">9</text><text x="1639" y="800" text-anchor="middle" dominant-baseline="middle" alignment-baseline="middle" class="messageText" dy="1em" style="font-size: 16px; font-weight: 400;">productCreate + variants</text><line x1="1469" y1="829" x2="1815" y2="829" class="messageLine0" stroke-width="2" stroke="none" marker-end="url(#arrowhead)" style="fill: none;"/><line x1="1462" y1="829" x2="1462" y2="829" stroke-width="0" marker-start="url(#sequencenumber)"/><text x="1462" y="833" font-family="sans-serif" font-size="12px" text-anchor="middle" class="sequenceNumber">10</text><text x="1642" y="844" text-anchor="middle" dominant-baseline="middle" alignment-baseline="middle" class="messageText" dy="1em" style="font-size: 16px; font-weight: 400;">product id</text><line x1="1824" y1="873" x2="1466" y2="873" class="messageLine1" stroke-width="2" stroke="none" marker-end="url(#arrowhead)" style="stroke-dasharray: 3, 3; fill: none;"/><line x1="1819" y1="873" x2="1819" y2="873" stroke-width="0" marker-start="url(#sequencenumber)"/><text x="1819" y="877" font-family="sans-serif" font-size="12px" text-anchor="middle" class="sequenceNumber">11</text><text x="699" y="888" text-anchor="middle" dominant-baseline="middle" alignment-baseline="middle" class="messageText" dy="1em" style="font-size: 16px; font-weight: 400;">status = Live</text><path d="M 699,917 C 759,907 759,947 699,937" class="messageLine0" stroke-width="2" stroke="none" marker-end="url(#arrowhead)" x1="705" style="fill: none;"/><line x1="698" y1="917" x2="698" y2="917" stroke-width="0" marker-start="url(#sequencenumber)"/><text x="698" y="921" font-family="sans-serif" font-size="12px" text-anchor="middle" class="sequenceNumber">12</text><text x="388" y="962" text-anchor="middle" dominant-baseline="middle" alignment-baseline="middle" class="messageText" dy="1em" style="font-size: 16px; font-weight: 400;">notify - product live</text><line x1="703" y1="991" x2="79" y2="991" class="messageLine0" stroke-width="2" stroke="none" marker-end="url(#arrowhead)" style="fill: none;"/><line x1="698" y1="991" x2="698" y2="991" stroke-width="0" marker-start="url(#sequencenumber)"/><text x="698" y="995" font-family="sans-serif" font-size="12px" text-anchor="middle" class="sequenceNumber">13</text><text x="982" y="1051" text-anchor="middle" dominant-baseline="middle" alignment-baseline="middle" class="messageText" dy="1em" style="font-size: 16px; font-weight: 400;">reject with reason</text><line x1="1267" y1="1080" x2="702" y2="1080" class="messageLine0" stroke-width="2" stroke="none" marker-end="url(#arrowhead)" style="fill: none;"/><line x1="1262" y1="1080" x2="1262" y2="1080" stroke-width="0" marker-start="url(#sequencenumber)"/><text x="1262" y="1084" font-family="sans-serif" font-size="12px" text-anchor="middle" class="sequenceNumber">14</text><text x="388" y="1095" text-anchor="middle" dominant-baseline="middle" alignment-baseline="middle" class="messageText" dy="1em" style="font-size: 16px; font-weight: 400;">notify - rejected + what to fix</text><line x1="703" y1="1124" x2="79" y2="1124" class="messageLine0" stroke-width="2" stroke="none" marker-end="url(#arrowhead)" style="fill: none;"/><line x1="698" y1="1124" x2="698" y2="1124" stroke-width="0" marker-start="url(#sequencenumber)"/><text x="698" y="1128" font-family="sans-serif" font-size="12px" text-anchor="middle" class="sequenceNumber">15</text><text x="276" y="1281" text-anchor="middle" dominant-baseline="middle" alignment-baseline="middle" class="messageText" dy="1em" style="font-size: 16px; font-weight: 400;">update stock / price</text><line x1="82" y1="1310" x2="475" y2="1310" class="messageLine0" stroke-width="2" stroke="none" marker-end="url(#arrowhead)" style="fill: none;"/><line x1="75" y1="1310" x2="75" y2="1310" stroke-width="0" marker-start="url(#sequencenumber)"/><text x="75" y="1314" font-family="sans-serif" font-size="12px" text-anchor="middle" class="sequenceNumber">16</text><text x="587" y="1325" text-anchor="middle" dominant-baseline="middle" alignment-baseline="middle" class="messageText" dy="1em" style="font-size: 16px; font-weight: 400;">apply immediately</text><line x1="486" y1="1354" x2="694" y2="1354" class="messageLine0" stroke-width="2" stroke="none" marker-end="url(#arrowhead)" style="fill: none;"/><line x1="479" y1="1354" x2="479" y2="1354" stroke-width="0" marker-start="url(#sequencenumber)"/><text x="479" y="1358" font-family="sans-serif" font-size="12px" text-anchor="middle" class="sequenceNumber">17</text><text x="1079" y="1369" text-anchor="middle" dominant-baseline="middle" alignment-baseline="middle" class="messageText" dy="1em" style="font-size: 16px; font-weight: 400;">sync to Shopify</text><line x1="705" y1="1398" x2="1458" y2="1398" class="messageLine0" stroke-width="2" stroke="none" marker-end="url(#arrowhead)" style="fill: none;"/><line x1="698" y1="1398" x2="698" y2="1398" stroke-width="0" marker-start="url(#sequencenumber)"/><text x="698" y="1402" font-family="sans-serif" font-size="12px" text-anchor="middle" class="sequenceNumber">18</text><text x="1639" y="1413" text-anchor="middle" dominant-baseline="middle" alignment-baseline="middle" class="messageText" dy="1em" style="font-size: 16px; font-weight: 400;">inventorySetQuantities / variant price update</text><line x1="1469" y1="1442" x2="1815" y2="1442" class="messageLine0" stroke-width="2" stroke="none" marker-end="url(#arrowhead)" style="fill: none;"/><line x1="1462" y1="1442" x2="1462" y2="1442" stroke-width="0" marker-start="url(#sequencenumber)"/><text x="1462" y="1446" font-family="sans-serif" font-size="12px" text-anchor="middle" class="sequenceNumber">19</text><text x="1372" y="1457" text-anchor="middle" dominant-baseline="middle" alignment-baseline="middle" class="messageText" dy="1em" style="font-size: 16px; font-weight: 400;">log old value -&gt; new value</text><line x1="705" y1="1486" x2="2045" y2="1486" class="messageLine0" stroke-width="2" stroke="none" marker-end="url(#arrowhead)" style="fill: none;"/><line x1="698" y1="1486" x2="698" y2="1486" stroke-width="0" marker-start="url(#sequencenumber)"/><text x="698" y="1490" font-family="sans-serif" font-size="12px" text-anchor="middle" class="sequenceNumber">20</text><text x="276" y="1652" text-anchor="middle" dominant-baseline="middle" alignment-baseline="middle" class="messageText" dy="1em" style="font-size: 16px; font-weight: 400;">edit title / images / description</text><line x1="82" y1="1681" x2="475" y2="1681" class="messageLine0" stroke-width="2" stroke="none" marker-end="url(#arrowhead)" style="fill: none;"/><line x1="75" y1="1681" x2="75" y2="1681" stroke-width="0" marker-start="url(#sequencenumber)"/><text x="75" y="1685" font-family="sans-serif" font-size="12px" text-anchor="middle" class="sequenceNumber">21</text><text x="587" y="1696" text-anchor="middle" dominant-baseline="middle" alignment-baseline="middle" class="messageText" dy="1em" style="font-size: 16px; font-weight: 400;">create pending revision</text><line x1="486" y1="1725" x2="694" y2="1725" class="messageLine0" stroke-width="2" stroke="none" marker-end="url(#arrowhead)" style="fill: none;"/><line x1="479" y1="1725" x2="479" y2="1725" stroke-width="0" marker-start="url(#sequencenumber)"/><text x="479" y="1729" font-family="sans-serif" font-size="12px" text-anchor="middle" class="sequenceNumber">22</text><text x="843" y="1740" text-anchor="middle" dominant-baseline="middle" alignment-baseline="middle" class="messageText" dy="1em" style="font-size: 16px; font-weight: 400;">enqueue for QC</text><line x1="705" y1="1769" x2="987" y2="1769" class="messageLine0" stroke-width="2" stroke="none" marker-end="url(#arrowhead)" style="fill: none;"/><line x1="698" y1="1769" x2="698" y2="1769" stroke-width="0" marker-start="url(#sequencenumber)"/><text x="698" y="1773" font-family="sans-serif" font-size="12px" text-anchor="middle" class="sequenceNumber">23</text><text x="1372" y="1881" text-anchor="middle" dominant-baseline="middle" alignment-baseline="middle" class="messageText" dy="1em" style="font-size: 16px; font-weight: 400;">INSERT AUDIT_LOG</text><text x="1372" y="1900" text-anchor="middle" dominant-baseline="middle" alignment-baseline="middle" class="messageText" dy="1em" style="font-size: 16px; font-weight: 400;">(user, timestamp, old_value, new_value)</text><line x1="705" y1="1927" x2="2045" y2="1927" class="messageLine0" stroke-width="2" stroke="none" marker-end="url(#arrowhead)" style="fill: none;"/><line x1="698" y1="1927" x2="698" y2="1927" stroke-width="0" marker-start="url(#sequencenumber)"/><text x="698" y="1931" font-family="sans-serif" font-size="12px" text-anchor="middle" class="sequenceNumber">24</text><g class="actor-man actor-bottom" name="VD"><line id="actor-man-torso7" x1="75" y1="2040" x2="75" y2="2060"/><line id="actor-man-arms7" x1="57" y1="2048" x2="93" y2="2048"/><line x1="57" y1="2075" x2="75" y2="2060"/><line x1="75" y1="2060" x2="91" y2="2075"/><circle cx="75" cy="2025" r="15" width="150" height="65"/><text x="75" y="2082.5" dominant-baseline="central" alignment-baseline="central" class="actor actor-man" style="text-anchor: middle; font-size: 16px; font-weight: 400;"><tspan x="75" dy="0">Vendor</tspan></text></g><g class="actor-man actor-bottom" name="QC"><line id="actor-man-torso7" x1="1262" y1="2040" x2="1262" y2="2060"/><line id="actor-man-arms7" x1="1244" y1="2048" x2="1280" y2="2048"/><line x1="1244" y1="2075" x2="1262" y2="2060"/><line x1="1262" y1="2060" x2="1278" y2="2075"/><circle cx="1262" cy="2025" r="15" width="150" height="65"/><text x="1262" y="2082.5" dominant-baseline="central" alignment-baseline="central" class="actor actor-man" style="text-anchor: middle; font-size: 16px; font-weight: 400;"><tspan x="1262" dy="0">QC / Admin</tspan></text></g></svg>